<?xml version="1.0" encoding="utf-8"?>
<!-- Generator: Adobe Illustrator 14.0.0, SVG Export Plug-In . SVG Version: 6.00 Build 43363)  -->
<!DOCTYPE svg PUBLIC "-//W3C//DTD SVG 1.1//EN" "http://www.w3.org/Graphics/SVG/1.1/DTD/svg11.dtd">
<svg version="1.1" xmlns="http://www.w3.org/2000/svg" xmlns:xlink="http://www.w3.org/1999/xlink" x="0px" y="0px" width="400px"
	 height="400px" viewBox="0 0 400 400" enable-background="new 0 0 400 400" fill="red" xml:space="preserve">
<g id="Layer_1" display="none">
	<path display="inline" d="M200,2.385C90.861,2.385,2.386,90.86,2.386,200S90.861,397.613,200,397.613
		c109.14,0,197.614-88.475,197.614-197.614S309.14,2.385,200,2.385z M200,299.346c-54.867,0-99.346-44.478-99.346-99.347
		c0-54.867,44.479-99.346,99.346-99.346c54.869,0,99.346,44.479,99.346,99.346C299.347,254.868,254.869,299.346,200,299.346z"/>
</g>
<g id="Layer_2">
	<path d="M384.354,316.492L268.579,200.716L382.995,86.302l-0.034-0.032c8.741-8.843,14.142-20.996,14.142-34.413
		c0-27.039-21.921-48.959-48.96-48.959c-15.156,0-28.701,6.889-37.682,17.706L199.462,131.6L84.869,17.006l-0.032,0.033
		C75.994,8.299,63.841,2.898,50.425,2.898c-27.04,0-48.96,21.92-48.96,48.959c0,15.156,6.89,28.703,17.706,37.683l111.174,111.176
		L19.156,311.905c-10.808,8.981-17.691,22.521-17.691,37.67c0,27.039,21.92,48.96,48.96,48.96c12.724,0,24.313-4.854,33.02-12.813
		l0.065,0.066l115.953-115.954l111.01,111.012c8.982,10.808,22.521,17.689,37.671,17.689c27.039,0,48.96-21.921,48.96-48.96
		c0-12.723-4.856-24.312-12.814-33.019L384.354,316.492z"/>
</g>
</svg>
